<svg id="Layer_1" data-name="Layer 1" xmlns="http://www.w3.org/2000/svg" xmlns:xlink="http://www.w3.org/1999/xlink" viewBox="0 0 89.64 46.76"><defs><style>.cls-1{fill:none;}.cls-2{clip-path:url(#clip-path);}.cls-3{fill:#fff;}</style><clipPath id="clip-path" transform="translate(-165 -112.24)"><rect class="cls-1" x="165" y="112.24" width="89.64" height="46.76"/></clipPath></defs><title>arrow-down-white</title><g class="cls-2"><path class="cls-3" d="M209.82,159a1.9,1.9,0,0,1-1.37-.57l-42.88-42.88a1.94,1.94,0,0,1,1.37-3.31H205.2a1.94,1.94,0,0,1,0,3.88H171.63l38.19,38.19L248,116.12H214.6a1.94,1.94,0,0,1,0-3.88h38.1a1.94,1.94,0,0,1,1.37,3.31l-42.88,42.88a1.91,1.91,0,0,1-1.37.57" transform="translate(-165 -112.24)"/></g></svg>