<svg id="Layer_1" data-name="Layer 1" xmlns="http://www.w3.org/2000/svg" xmlns:xlink="http://www.w3.org/1999/xlink" viewBox="0 0 243.09 68.13"><defs><style>.cls-1{fill:none;}.cls-2{clip-path:url(#clip-path);}.cls-3{fill:#fff;}</style><clipPath id="clip-path" transform="translate(-70 -101.87)"><rect class="cls-1" x="70" y="101.87" width="243.09" height="68.13"/></clipPath></defs><title>huset-logo-white</title><g class="cls-2"><path class="cls-3" d="M105.1,134.49a.94.94,0,0,1-.93-.94V104.78H98.25v27a.94.94,0,0,1-.94.93H78.73a.94.94,0,0,1-.94-.93v-27H71.87v28.77a.94.94,0,1,1-1.87,0V103.84a.93.93,0,0,1,.93-.93h7.8a.93.93,0,0,1,.93.93v27H96.38v-27a.93.93,0,0,1,.93-.93h7.79a.94.94,0,0,1,.94.93v29.71a.94.94,0,0,1-.94.94" transform="translate(-70 -101.87)"/><path class="cls-3" d="M105.1,169.57H97.31a.93.93,0,0,1-.93-.93V140.52H79.66v28.12a.93.93,0,0,1-.93.93h-7.8a.93.93,0,0,1-.93-.93V137.46a.94.94,0,0,1,1.87,0v30.25h5.92V139.59a.94.94,0,0,1,.94-.94H97.31a.94.94,0,0,1,.94.94v28.12h5.92V137.46a.94.94,0,0,1,1.87,0v31.18a.93.93,0,0,1-.94.93" transform="translate(-70 -101.87)"/><path class="cls-3" d="M131.81,170a18.17,18.17,0,0,1-12.26-4.52c-3.65-3.31-5.58-8-5.58-13.66V122.53a.94.94,0,1,1,1.87,0v29.29c0,5.09,1.71,9.33,5,12.27a16.28,16.28,0,0,0,11,4A16.78,16.78,0,0,0,143,164a15.75,15.75,0,0,0,5.1-12.2V122.53a.94.94,0,1,1,1.87,0v29.29c0,11.93-9.16,18.18-18.2,18.18" transform="translate(-70 -101.87)"/><path class="cls-3" d="M130.07,162.3a.55.55,0,0,1-.18,0c-4.94-1-8.13-5.08-8.13-10.46V104.94h-5.92v13.71a.94.94,0,0,1-1.87,0V104a.93.93,0,0,1,.93-.93h7.79a.94.94,0,0,1,.94.93v47.82c0,5.4,3.42,8,6.62,8.63a.93.93,0,0,1-.18,1.85" transform="translate(-70 -101.87)"/><path class="cls-3" d="M133.9,162.3a.93.93,0,0,1-.18-1.85c3.21-.63,6.63-3.23,6.63-8.63V104a.93.93,0,0,1,.93-.93h7.79a.94.94,0,0,1,.94.93v14.64a.94.94,0,1,1-1.87,0v-13.7h-5.92v46.88c0,5.39-3.2,9.5-8.14,10.47h-.18" transform="translate(-70 -101.87)"/><path class="cls-3" d="M175,140.26a.92.92,0,0,1-.45-.12c-15.28-8.62-16.92-13.55-17.48-19.1v0A17.86,17.86,0,0,1,162,107.6a18.69,18.69,0,0,1,32.16,12.93.93.93,0,0,1-.93.93H185a.94.94,0,0,1-.93-.9c-.17-5.06-3.55-8.45-8.42-8.45a8.83,8.83,0,0,0-6.5,2.64,7.35,7.35,0,0,0-1.93,5.71c.19,3.78,3.27,6,8.32,9.07a.93.93,0,0,1,.3,1.28.94.94,0,0,1-1.29.31c-5.4-3.34-9-5.88-9.2-10.54a9.33,9.33,0,0,1,2.43-7.1,10.69,10.69,0,0,1,7.87-3.24,10,10,0,0,1,10.23,9.35h6.4a16.83,16.83,0,0,0-28.91-10.71,16.08,16.08,0,0,0-4.41,12c.51,5,2.06,9.46,16.53,17.63a.93.93,0,0,1-.46,1.75" transform="translate(-70 -101.87)"/><path class="cls-3" d="M176.62,170a19,19,0,0,1-18.83-19.15.93.93,0,0,1,.93-.94h8.38a.93.93,0,0,1,.93.91,8.64,8.64,0,0,0,8.59,8.71,9,9,0,0,0,6.6-2.69,7.63,7.63,0,0,0,2-5.92c-.19-3.82-2.94-5.86-7.44-8.78a.94.94,0,0,1,1-1.57c4.85,3.15,8.05,5.56,8.29,10.23a9.57,9.57,0,0,1-2.5,7.31,10.82,10.82,0,0,1-8,3.29,10.4,10.4,0,0,1-10.39-9.62h-6.55a17.1,17.1,0,0,0,29.39,11.12,16.62,16.62,0,0,0,4.55-12.42c-.5-5-2.05-9.75-15.8-17.45a.93.93,0,0,1-.36-1.27,1,1,0,0,1,1.28-.36c13.16,7.37,16.1,12.52,16.74,18.92v0A18.59,18.59,0,0,1,176.62,170" transform="translate(-70 -101.87)"/><path class="cls-3" d="M236.42,169.73H202.25a.94.94,0,0,1-.94-.93V137.9a.94.94,0,1,1,1.87,0v30h32.3v-5.92H210a.94.94,0,0,1-.94-.93V139.74a.94.94,0,0,1,.94-.93h13.05v-.91a.94.94,0,1,1,1.87,0v1.84a.94.94,0,0,1-.94.94H211v19.39h25.45a.94.94,0,0,1,.93.94v7.79a.93.93,0,0,1-.93.93" transform="translate(-70 -101.87)"/><path class="cls-3" d="M224,134.92a.94.94,0,0,1-.93-.94v-1.09H210a.94.94,0,0,1-.94-.94V111.79a.94.94,0,0,1,.94-.93h25.44v-5.92h-32.3v29a.94.94,0,1,1-1.87,0V104a.94.94,0,0,1,.94-.93h34.17a.93.93,0,0,1,.93.93v7.79a.94.94,0,0,1-.93.94H211V131H224a.94.94,0,0,1,.94.93v2a.94.94,0,0,1-.94.94" transform="translate(-70 -101.87)"/><path class="cls-3" d="M259.05,169.57H257a.93.93,0,0,1-.94-.93V112.57H243.9a.93.93,0,0,1-.93-.93v-7.79a.94.94,0,0,1,.93-.94h15.15a.94.94,0,1,1,0,1.87H244.84v5.92H257a.94.94,0,0,1,.93.94v56.07h1.12a.93.93,0,1,1,0,1.86" transform="translate(-70 -101.87)"/><path class="cls-3" d="M265,169.57h-2a.93.93,0,0,1,0-1.86H264V111.64a.94.94,0,0,1,.94-.94h12.16v-5.92H263a.94.94,0,0,1,0-1.87h15.08a.94.94,0,0,1,.94.94v7.79a.94.94,0,0,1-.94.93H265.91v56.07a.92.92,0,0,1-.93.93" transform="translate(-70 -101.87)"/><path class="cls-3" d="M294.17,169.57a1,1,0,0,1-.67-.27l-18-18a.9.9,0,0,1-.2-1,.92.92,0,0,1,.86-.58h16.05a.94.94,0,0,1,0,1.87H278.44l15.73,15.73,15.73-15.73H296.17a.94.94,0,0,1,0-1.87h16a.92.92,0,0,1,.86.58.9.9,0,0,1-.2,1l-18,18a1,1,0,0,1-.66.27" transform="translate(-70 -101.87)"/></g></svg>