<?xml version="1.0" encoding="utf-8"?>
<!-- Generator: Adobe Illustrator 22.1.0, SVG Export Plug-In . SVG Version: 6.00 Build 0)  -->
<svg version="1.1" xmlns="http://www.w3.org/2000/svg" xmlns:xlink="http://www.w3.org/1999/xlink" x="0px" y="0px"
	 viewBox="0 0 841.9 595.3" style="enable-background:new 0 0 841.9 595.3;" xml:space="preserve">
<style type="text/css">
	.st0{fill:none;stroke:#ED1C24;stroke-width:2;stroke-miterlimit:10;}
</style>
<g id="Layer_1">
</g>
<g id="Layer_2">
	<polyline class="st0" points="299.5,228.6 299.5,264.9 306.4,264.9 306.4,228.6 	"/>
	<polyline class="st0" points="299.5,224.9 299.5,191.7 310.7,191.7 319.5,225.5 	"/>
	<polyline class="st0" points="319.5,225.5 327.2,254.2 334.6,226 344.1,191.7 354.4,191.7 354.4,225.5 	"/>
	<polyline class="st0" points="306.4,228.6 306.4,202.7 312.4,223.7 323.6,264.9 329.9,264.9 346.8,204 346.8,264.9 354.4,264.9 
		354.4,228.6 	"/>
	<path class="st0" d="M367,212.3v36c0,0,0.5,20.8,22,19.7c0,0,17.3-0.8,19-19.2v-36.5"/>
	<path class="st0" d="M367,207.3v-16.7h9.3V248c0,0,0,9.7,9.3,11.3"/>
	<path class="st0" d="M389.7,259.3c0,0,9-2.3,9.2-10.8v-55.2h9.2v15.8"/>
	<path class="st0" d="M442.7,235c0,0,10.5,5,9.5,13.7c0,0-1.3,8.7-11.3,9.2s-11.7-11.4-11.7-11.4l-9.8,0c0,0,0.8,21.2,21.3,21.6
		c0,0,20.7,0.1,21.2-22c0,0,0.4-11.6-19.2-21.8"/>
	<path class="st0" d="M438.8,222.1c0,0-12.9-6.2-10.1-14.9c0,0,2.8-9.9,15-7.3c0,0,7.1,2.9,7.2,10.9h9.6c0,0-0.3-20.1-20.6-21.6
		c0,0-18.2-1.4-21.5,19.2c0,0-0.2,9.7,6,14.6c6.2,4.9,14.2,9.8,14.2,9.8"/>
	<polyline class="st0" points="472.9,230 472.9,267.2 482.2,267.2 482.2,230 	"/>
	<polyline class="st0" points="472.9,225 472.9,190 482.2,190 482.2,225 	"/>
	<path class="st0" d="M503.7,228.5c0,0-1-29.4,17.2-29.6c0,0,10.5-1.5,11.8,11.5h9.8c0,0,0.8-19.2-20.2-21c0,0-28.7-3.6-28,39.1"/>
	<path class="st0" d="M503.7,232.8c0,0-1,26.9,17.2,27.1c0,0,10.5,1.4,11.8-10.5h9.8c0,0,0.8,17.6-20.2,19.2c0,0-28.7,3.3-28-35.8"
		/>
</g>
</svg>
