<svg id="Layer_2" data-name="Layer 2" xmlns="http://www.w3.org/2000/svg" viewBox="0 0 244.96 81.45"><defs><style>.cls-1{fill:none;stroke:#fff;stroke-miterlimit:10;stroke-width:2px;}</style></defs><title>music-title-white</title><polyline class="cls-1" points="1 40.45 1 76.8 7.98 76.8 7.98 40.45"/><polyline class="cls-1" points="1 36.72 1 3.53 12.2 3.53 21.09 37.3"/><polyline class="cls-1" points="21.09 37.3 28.73 66.05 36.17 37.83 45.63 3.53 55.91 3.53 55.91 37.3"/><polyline class="cls-1" points="7.98 40.45 7.98 14.59 13.92 35.56 25.15 76.8 31.49 76.8 48.38 15.87 48.38 76.8 55.91 76.8 55.91 40.45"/><path class="cls-1" d="M146.41,361v36s.5,20.84,22,19.67c0,0,17.34-.83,19-19.17V361" transform="translate(-77.84 -336.84)"/><path class="cls-1" d="M146.41,356V339.37h9.34V396.7s0,9.67,9.33,11.33" transform="translate(-77.84 -336.84)"/><path class="cls-1" d="M169.08,408s9-2.33,9.17-10.83V342h9.16v15.84" transform="translate(-77.84 -336.84)"/><path class="cls-1" d="M222.08,383.7s10.5,5,9.5,13.67c0,0-1.33,8.66-11.33,9.16s-11.67-11.41-11.67-11.41h-9.83s.83,21.17,21.33,21.63c0,0,20.67.12,21.17-22.05,0,0,.41-11.58-19.17-21.83" transform="translate(-77.84 -336.84)"/><path class="cls-1" d="M218.16,370.78s-12.91-6.25-10.08-14.91c0,0,2.75-9.92,15-7.34a12.41,12.41,0,0,1,7.25,10.91h9.58s-.33-20.07-20.58-21.57c0,0-18.17-1.42-21.5,19.25,0,0-.25,9.66,6,14.58a165,165,0,0,0,14.25,9.75" transform="translate(-77.84 -336.84)"/><polyline class="cls-1" points="174.49 41.83 174.49 79.08 183.74 79.08 183.74 41.83"/><polyline class="cls-1" points="174.49 36.83 174.49 1.83 183.74 1.83 183.74 36.83"/><path class="cls-1" d="M283.05,377.15s-1-29.38,17.25-29.57c0,0,10.5-1.5,11.75,11.5h9.75s.75-19.25-20.25-21c0,0-28.75-3.61-28,39.07" transform="translate(-77.84 -336.84)"/><path class="cls-1" d="M283.05,381.45s-1,26.9,17.25,27.08c0,0,10.5,1.37,11.75-10.54h9.75s.75,17.63-20.25,19.23c0,0-28.75,3.31-28-35.77" transform="translate(-77.84 -336.84)"/></svg>