<?xml version="1.0" encoding="utf-8"?>
<!-- Generator: Adobe Illustrator 22.1.0, SVG Export Plug-In . SVG Version: 6.00 Build 0)  -->
<svg version="1.1" id="Layer_1" xmlns="http://www.w3.org/2000/svg" xmlns:xlink="http://www.w3.org/1999/xlink" x="0px" y="0px"
	 viewBox="0 0 841.9 595.3" style="enable-background:new 0 0 841.9 595.3;" xml:space="preserve">
<style type="text/css">
	.st0{fill:#D51B39;}
	.st1{fill:none;stroke:#ED1C24;stroke-width:4;stroke-miterlimit:10;}
</style>
<g>
	<path class="st0" d="M87.1,164.2c1.4-27.7,25.2-49.3,53-48c27.9,1.3,49.4,25.2,48.1,53.2c-1.4,28-25.3,49.4-53.6,47.9
		C107.2,216,85.7,192,87.1,164.2z M136.9,185.8c10.5,0.4,19.3-7.8,19.7-18.3c0.4-10.4-7.6-19.1-18-19.6
		c-10.4-0.5-19.4,7.7-19.8,18.2C118.3,176.5,126.4,185.4,136.9,185.8z M111.5,134.2c-1.5,1.1-2.7,2-4.1,3.1c4.3,4.1,8,7.7,11.8,11.4
		c0.8-0.8,1.4-1.4,2.1-2.1C118,142.5,114.9,138.5,111.5,134.2z M153.8,186.8c3.5,4.4,6.7,8.5,9.6,12.2c1.5-0.9,2.9-1.8,4.5-2.7
		c-4.4-4.2-8.1-7.7-11.9-11.4C155.2,185.6,154.6,186.1,153.8,186.8z"/>
	<path class="st0" d="M137.4,171c-2.4-0.1-4.1-2-3.9-4.4c0.1-2.4,2.1-4,4.4-3.9c2.2,0.2,3.9,2,3.8,4.3
		C141.7,169.3,139.8,171.1,137.4,171z"/>
</g>
<g>
	<path class="st0" d="M560.8,156.9c-31.7-34.7-29.2-89.1,5.5-120.9c34.8-31.9,89.2-29.4,121.3,5.6c32,34.9,29.2,89.3-6.2,121.5
		C647,194.5,592.6,191.7,560.8,156.9z M646.1,122.8c13-12.1,13.6-32.4,1.4-45.4c-12.1-12.9-32.1-13.6-45.1-1.7
		c-13,12-13.8,32.5-1.8,45.5C612.7,134.1,633.1,134.9,646.1,122.8z M553.8,91.9c-0.4,3.2-0.8,5.7-1.2,8.7c10-0.3,18.7-0.5,27.7-0.7
		c0-1.9,0-3.4,0-5C571.5,93.8,563,92.9,553.8,91.9z M667.4,103.7c9.5,1.1,18.1,2,26.2,2.9c0.7-3,1.4-5.6,2.1-8.6
		c-10.2,0.3-18.9,0.5-27.8,0.7C667.6,100.6,667.5,101.8,667.4,103.7z"/>
	<path class="st0" d="M628.9,104.5c-3,2.7-7.2,2.5-9.9-0.5c-2.7-3-2.4-7.3,0.6-9.9c2.9-2.5,7-2.3,9.6,0.5
		C632,97.4,631.8,101.7,628.9,104.5z"/>
</g>
<g>
	<path class="st0" d="M156.2,451.6c44.5-17.7,95.5,4.3,113.3,48.9c17.8,44.7-4.2,95.7-49.1,113.6c-44.8,17.9-95.6-4.4-113.6-49.8
		C89.3,520.2,111.6,469.4,156.2,451.6z M158,545.3c6.8,16.8,26,24.7,42.8,17.7c16.6-6.9,24.6-25.7,17.9-42.4
		c-6.7-16.7-26-24.9-42.7-18.1C159.2,509.4,151.2,528.5,158,545.3z M220.8,468.5c-2.9-1.5-5.1-2.8-7.9-4.2c-3.4,9.7-6.3,18-9.3,26.7
		c1.8,0.7,3.2,1.2,4.8,1.8C212.5,484.6,216.5,476.8,220.8,468.5z M168.5,572.5c-4.5,8.7-8.5,16.5-12.2,23.9c2.6,1.8,4.8,3.3,7.4,5.1
		c3.4-9.8,6.3-18.2,9.3-26.8C171.4,573.8,170.3,573.3,168.5,572.5z"/>
	<path class="st0" d="M181.7,535.5c-1.5-3.8,0.2-7.8,4.1-9.3c3.8-1.5,7.9,0.4,9.3,4.2c1.3,3.6-0.4,7.5-4,9
		C187.3,541,183.2,539.3,181.7,535.5z"/>
</g>
<g>
	<path class="st0" d="M529.8,440.2c1.4-27.7,25.2-49.3,53-48c27.9,1.3,49.4,25.2,48.1,53.2c-1.4,28-25.3,49.4-53.6,47.9
		C549.9,492,528.5,468,529.8,440.2z M579.7,461.8c10.5,0.4,19.3-7.8,19.7-18.3c0.4-10.4-7.6-19.1-18-19.6
		c-10.4-0.5-19.4,7.7-19.8,18.2C561,452.5,569.2,461.4,579.7,461.8z M554.3,410.2c-1.5,1.1-2.7,2-4.1,3.1c4.3,4.1,8,7.7,11.8,11.4
		c0.8-0.8,1.4-1.4,2.1-2.1C560.8,418.5,557.6,414.5,554.3,410.2z M596.5,462.8c3.5,4.4,6.7,8.5,9.6,12.2c1.5-0.9,2.9-1.8,4.5-2.7
		c-4.4-4.2-8.1-7.7-11.9-11.4C597.9,461.6,597.4,462.1,596.5,462.8z"/>
	<path class="st0" d="M580.2,447c-2.4-0.1-4.1-2-3.9-4.4c0.1-2.4,2.1-4,4.4-3.9c2.2,0.2,3.9,2,3.8,4.3
		C584.4,445.3,582.6,447.1,580.2,447z"/>
</g>
<g>
	<path class="st0" d="M791.3,263.6c1.4-27.7,25.2-49.3,53-48c27.9,1.3,49.4,25.2,48.1,53.2c-1.4,28-25.3,49.4-53.6,47.9
		C811.4,315.4,790,291.4,791.3,263.6z M841.1,285.2c10.5,0.4,19.3-7.8,19.7-18.3c0.4-10.4-7.6-19.1-18-19.6
		c-10.4-0.5-19.4,7.7-19.8,18.2C822.5,275.9,830.7,284.8,841.1,285.2z M815.7,233.7c-1.5,1.1-2.7,2-4.1,3.1c4.3,4.1,8,7.7,11.8,11.4
		c0.8-0.8,1.4-1.4,2.1-2.1C822.3,241.9,819.1,237.9,815.7,233.7z M858,286.2c3.5,4.4,6.7,8.5,9.6,12.2c1.5-0.9,2.9-1.8,4.5-2.7
		c-4.4-4.2-8.1-7.7-11.9-11.4C859.4,285,858.9,285.5,858,286.2z"/>
	<path class="st0" d="M841.7,270.4c-2.4-0.1-4.1-2-3.9-4.4c0.1-2.4,2.1-4,4.4-3.9c2.2,0.2,3.9,2,3.8,4.3
		C845.9,268.8,844,270.5,841.7,270.4z"/>
</g>
<g>
	<path class="st0" d="M339.8-2.6c1.4-27.7,25.2-49.3,53-48c27.9,1.3,49.4,25.2,48.1,53.2c-1.4,28-25.3,49.4-53.6,47.9
		C359.9,49.2,338.5,25.2,339.8-2.6z M389.6,19c10.5,0.4,19.3-7.8,19.7-18.3c0.4-10.4-7.6-19.1-18-19.6c-10.4-0.5-19.4,7.7-19.8,18.2
		C371,9.7,379.2,18.6,389.6,19z M364.2-32.6c-1.5,1.1-2.7,2-4.1,3.1c4.3,4.1,8,7.7,11.8,11.4c0.8-0.8,1.4-1.4,2.1-2.1
		C370.7-24.4,367.6-28.3,364.2-32.6z M406.5,20c3.5,4.4,6.7,8.5,9.6,12.2c1.5-0.9,2.9-1.8,4.5-2.7c-4.4-4.2-8.1-7.7-11.9-11.4
		C407.9,18.8,407.4,19.3,406.5,20z"/>
	<path class="st0" d="M390.2,4.1c-2.4-0.1-4.1-2-3.9-4.4c0.1-2.4,2.1-4,4.4-3.9c2.2,0.2,3.9,2,3.8,4.3
		C394.4,2.5,392.5,4.3,390.2,4.1z"/>
</g>
<g>
	<path class="st0" d="M-27.7,346.9c1.4-27.7,25.2-49.3,53-48c27.9,1.3,49.4,25.2,48.1,53.2c-1.4,28-25.3,49.4-53.6,47.9
		C-7.7,398.7-29.1,374.7-27.7,346.9z M22.1,368.5c10.5,0.4,19.3-7.8,19.7-18.3c0.4-10.4-7.6-19.1-18-19.6
		c-10.4-0.5-19.4,7.7-19.8,18.2C3.4,359.2,11.6,368,22.1,368.5z M-3.3,316.9c-1.5,1.1-2.7,2-4.1,3.1c4.3,4.1,8,7.7,11.8,11.4
		c0.8-0.8,1.4-1.4,2.1-2.1C3.2,325.1,0.1,321.2-3.3,316.9z M39,369.5c3.5,4.4,6.7,8.5,9.6,12.2c1.5-0.9,2.9-1.8,4.5-2.7
		c-4.4-4.2-8.1-7.7-11.9-11.4C40.4,368.3,39.8,368.7,39,369.5z"/>
	<path class="st0" d="M22.6,353.6c-2.4-0.1-4.1-2-3.9-4.4c0.1-2.4,2.1-4,4.4-3.9c2.2,0.2,3.9,2,3.8,4.3
		C26.9,352,25,353.7,22.6,353.6z"/>
</g>
<g>
	<path class="st0" d="M-115.5,46.1c2.4-48.1,43.8-85.6,92-83.2c48.3,2.3,85.7,43.8,83.4,92.3c-2.3,48.5-43.9,85.6-93,83.1
		C-80.6,136-117.8,94.3-115.5,46.1z M-29.1,83.6C-10.9,84.3,4.3,70.1,5,51.8C5.7,33.8-8.3,18.6-26.3,17.8
		c-18.1-0.8-33.6,13.3-34.4,31.5C-61.4,67.5-47.3,82.8-29.1,83.6z M-73.1-5.9c-2.6,2-4.7,3.5-7.2,5.4c7.4,7.1,13.8,13.3,20.5,19.7
		c1.4-1.4,2.4-2.4,3.7-3.6C-61.8,8.4-67.3,1.5-73.1-5.9z M0.2,85.3C6.3,93,11.8,100,16.9,106.5c2.7-1.6,5-3,7.8-4.7
		c-7.6-7.2-14-13.4-20.6-19.7C2.6,83.3,1.7,84.1,0.2,85.3z"/>
	<path class="st0" d="M-28.2,57.8c-4.1-0.2-7-3.5-6.8-7.6c0.3-4.1,3.6-7,7.7-6.7c3.9,0.3,6.7,3.5,6.6,7.4
		C-20.8,55-24.1,58-28.2,57.8z"/>
</g>
<g>
	<path class="st0" d="M640.5,582.2c2.5-50.3,45.7-89.4,96.1-87c50.5,2.4,89.6,45.7,87.2,96.5c-2.5,50.7-45.9,89.5-97.2,86.9
		C676.9,676.1,638,632.6,640.5,582.2z M730.8,621.4c19,0.8,34.9-14.1,35.6-33.2c0.7-18.9-13.9-34.7-32.7-35.6
		c-18.9-0.9-35.1,13.9-35.9,32.9C697,604.6,711.8,620.6,730.8,621.4z M684.7,527.9c-2.7,2.1-4.9,3.7-7.5,5.7
		c7.8,7.4,14.5,13.9,21.4,20.6c1.4-1.4,2.6-2.5,3.8-3.8C696.5,542.8,690.9,535.6,684.7,527.9z M761.4,623.2
		c6.4,8,12.1,15.3,17.5,22.1c2.8-1.7,5.3-3.2,8.1-4.9c-7.9-7.6-14.6-14-21.6-20.6C763.9,621.1,762.9,621.9,761.4,623.2z"/>
	<path class="st0" d="M731.7,594.5c-4.3-0.2-7.4-3.6-7.1-8c0.3-4.3,3.8-7.3,8.1-7c4,0.3,7,3.6,6.9,7.7
		C739.4,591.5,736,594.7,731.7,594.5z"/>
</g>
<polyline class="st1" points="236.5,297.5 236.5,352.9 247.1,352.9 247.1,297.5 "/>
<polyline class="st1" points="236.5,291.8 236.5,241.2 253.5,241.2 267.1,292.7 "/>
<polyline class="st1" points="267.1,292.7 278.8,336.5 290.1,293.5 304.5,241.2 320.2,241.2 320.2,292.7 "/>
<polyline class="st1" points="247.1,297.5 247.1,258 256.2,290 273.3,352.9 283,352.9 308.7,260 308.7,352.9 320.2,352.9 
	320.2,297.5 "/>
<path class="st1" d="M339.5,272.7v54.9c0,0,0.8,31.8,33.6,30c0,0,26.4-1.3,29-29.2v-55.7"/>
<path class="st1" d="M339.5,265v-25.4h14.2v87.5c0,0,0,14.7,14.2,17.3"/>
<path class="st1" d="M374.1,344.4c0,0,13.7-3.6,14-16.5v-84.2h14v24.2"/>
<path class="st1" d="M455,307.2c0,0,16,7.6,14.5,20.8c0,0-2,13.2-17.3,14c-15.3,0.8-17.8-17.4-17.8-17.4l-15,0c0,0,1.3,32.3,32.5,33
	c0,0,31.5,0.2,32.3-33.6c0,0,0.6-17.7-29.2-33.3"/>
<path class="st1" d="M449,287.5c0,0-19.7-9.5-15.4-22.8c0,0,4.2-15.1,22.9-11.2c0,0,10.8,4.4,11.1,16.6h14.6c0,0-0.5-30.6-31.4-32.9
	c0,0-27.7-2.2-32.8,29.4c0,0-0.4,14.7,9.2,22.2c9.5,7.5,21.7,14.9,21.7,14.9"/>
<polyline class="st1" points="501.1,299.6 501.1,356.4 515.2,356.4 515.2,299.6 "/>
<polyline class="st1" points="501.1,291.9 501.1,238.5 515.2,238.5 515.2,291.9 "/>
<path class="st1" d="M548,297.3c0,0-1.5-44.8,26.3-45.1c0,0,16-2.3,17.9,17.5h14.9c0,0,1.1-29.4-30.9-32c0,0-43.9-5.5-42.7,59.6"/>
<path class="st1" d="M548,303.8c0,0-1.5,41,26.3,41.3c0,0,16,2.1,17.9-16.1h14.9c0,0,1.1,26.9-30.9,29.3c0,0-43.9,5-42.7-54.6"/>
</svg>
